<?xml version="1.0" encoding="UTF-8"?>
<!DOCTYPE svg PUBLIC "-//W3C//DTD SVG 1.1//EN" "http://www.w3.org/Graphics/SVG/1.1/DTD/svg11.dtd">
<!-- Creator: CorelDRAW X8 -->
<svg xmlns="http://www.w3.org/2000/svg" xml:space="preserve" width="16.9359mm" height="17.0597mm" version="1.1" style="shape-rendering:geometricPrecision; text-rendering:geometricPrecision; image-rendering:optimizeQuality; fill-rule:evenodd; clip-rule:evenodd"
viewBox="0 0 197 199"
 xmlns:xlink="http://www.w3.org/1999/xlink">
 <defs>
  <style type="text/css">
   <![CDATA[
    .fil1 {fill:#442A15}
    .fil0 {fill:#FDAA24}
   ]]>
  </style>
 </defs>
 <g id="Camada_x0020_1">
  <metadata id="CorelCorpID_0Corel-Layer"/>
  <g id="_2036737670448">
   <path class="fil0" d="M48 117c14,0 37,35 79,12 9,-4 14,-12 23,-12 0,18 -45,41 -83,21 -5,-3 -7,-4 -12,-7 -5,-5 -9,-6 -7,-14zm92 -20c-6,-3 -21,-13 -22,-22 -2,-9 5,-24 22,-9 4,-3 8,-9 17,-5 14,6 3,28 -17,36zm-83 0c-37,-15 -22,-53 0,-30 9,-12 25,-9 22,8 -1,9 -15,18 -22,22zm-57 -8c0,23 -1,36 11,57 10,18 29,37 49,45 73,30 137,-32 137,-82 0,-33 -2,-53 -28,-80 -43,-43 -111,-38 -150,11 -3,4 -6,8 -8,14 -6,11 -11,21 -11,35z"/>
   <path class="fil1" d="M140 97c20,-8 31,-30 17,-36 -9,-4 -13,2 -17,5 -17,-15 -24,0 -22,9 1,9 16,19 22,22z"/>
   <path class="fil1" d="M57 97c7,-4 21,-13 22,-22 3,-17 -13,-20 -22,-8 -22,-23 -37,15 0,30z"/>
   <path class="fil1" d="M127 129c-42,23 -65,-12 -79,-12 -2,8 2,9 7,14 5,3 7,4 12,7 38,20 83,-3 83,-21 -9,0 -14,8 -23,12z"/>
  </g>
 </g>
</svg>
