<?xml version="1.0" encoding="UTF-8"?>
<!DOCTYPE svg PUBLIC "-//W3C//DTD SVG 1.1//EN" "http://www.w3.org/Graphics/SVG/1.1/DTD/svg11.dtd">
<!-- Creator: CorelDRAW X8 -->
<svg xmlns="http://www.w3.org/2000/svg" xml:space="preserve" width="16.9351mm" height="17.1293mm" version="1.1" style="shape-rendering:geometricPrecision; text-rendering:geometricPrecision; image-rendering:optimizeQuality; fill-rule:evenodd; clip-rule:evenodd"
viewBox="0 0 236 239"
 xmlns:xlink="http://www.w3.org/1999/xlink">
 <defs>
  <style type="text/css">
   <![CDATA[
    .fil1 {fill:#442A15}
    .fil0 {fill:#FDAA24}
   ]]>
  </style>
 </defs>
 <g id="Camada_x0020_1">
  <metadata id="CorelCorpID_0Corel-Layer"/>
  <g id="_2036737668176">
   <path class="fil0" d="M56 147c-1,-28 33,41 97,8 9,-4 24,-22 26,-10 2,9 -43,47 -96,23 -7,-4 -26,-15 -27,-21zm119 -36c-29,3 -29,-30 0,-27l7 6c1,13 0,13 -7,21zm-119 -3c-9,-29 16,-30 24,-20 9,13 -3,30 -24,20zm-56 1c0,27 -1,41 13,66 4,8 17,26 24,31 104,83 199,-9 199,-80 0,-39 -7,-64 -34,-91 -79,-78 -202,-13 -202,74z"/>
   <path class="fil1" d="M153 155c-64,33 -98,-36 -97,-8 1,6 20,17 27,21 53,24 98,-14 96,-23 -2,-12 -17,6 -26,10z"/>
   <path class="fil1" d="M56 108c21,10 33,-7 24,-20 -8,-10 -33,-9 -24,20z"/>
   <path class="fil1" d="M175 111c7,-8 8,-8 7,-21l-7 -6c-29,-3 -29,30 0,27z"/>
  </g>
 </g>
</svg>
