<?xml version="1.0" encoding="UTF-8"?>
<!DOCTYPE svg PUBLIC "-//W3C//DTD SVG 1.1//EN" "http://www.w3.org/Graphics/SVG/1.1/DTD/svg11.dtd">
<!-- Creator: CorelDRAW X8 -->
<svg xmlns="http://www.w3.org/2000/svg" xml:space="preserve" width="16.9421mm" height="16.873mm" version="1.1" style="shape-rendering:geometricPrecision; text-rendering:geometricPrecision; image-rendering:optimizeQuality; fill-rule:evenodd; clip-rule:evenodd"
viewBox="0 0 210 209"
 xmlns:xlink="http://www.w3.org/1999/xlink">
 <defs>
  <style type="text/css">
   <![CDATA[
    .fil1 {fill:#442A15}
    .fil0 {fill:#FDAA24}
   ]]>
  </style>
 </defs>
 <g id="Camada_x0020_1">
  <metadata id="CorelCorpID_0Corel-Layer"/>
  <g id="_2036737667952">
   <path class="fil0" d="M60 159c-9,-27 21,-51 45,-51 24,0 54,24 45,51 -17,1 -3,-41 -45,-41 -43,1 -28,43 -45,41zm100 -82c7,24 -14,27 -21,17 -4,-5 -3,-14 2,-18 9,-7 16,1 19,1zm-108 20c-8,-19 4,-30 17,-21 9,7 6,28 -17,21zm67 -30c12,-7 22,-19 32,-24l6 6c-4,6 -24,21 -32,27l-6 -9zm-61 -24c10,4 21,17 33,24l-5 9c-8,-4 -24,-19 -34,-25l6 -8zm-58 60c0,111 149,148 199,46 17,-33 14,-73 -7,-103 -3,-4 -8,-11 -11,-14 -3,-3 -9,-8 -13,-11 -64,-51 -168,-4 -168,82z"/>
   <path class="fil1" d="M60 159c17,2 2,-40 45,-41 42,0 28,42 45,41 9,-27 -21,-51 -45,-51 -24,0 -54,24 -45,51z"/>
   <path class="fil1" d="M160 77c-3,0 -10,-8 -19,-1 -5,4 -6,13 -2,18 7,10 28,7 21,-17z"/>
   <path class="fil1" d="M52 97c23,7 26,-14 17,-21 -13,-9 -25,2 -17,21z"/>
   <path class="fil1" d="M52 51c10,6 26,21 34,25l5 -9c-12,-7 -23,-20 -33,-24l-6 8z"/>
   <path class="fil1" d="M119 67l6 9c8,-6 28,-21 32,-27l-6 -6c-10,5 -20,17 -32,24z"/>
  </g>
 </g>
</svg>
