<?xml version="1.0" encoding="UTF-8"?>
<!DOCTYPE svg PUBLIC "-//W3C//DTD SVG 1.1//EN" "http://www.w3.org/Graphics/SVG/1.1/DTD/svg11.dtd">
<!-- Creator: CorelDRAW X8 -->
<svg xmlns="http://www.w3.org/2000/svg" xml:space="preserve" width="16.9348mm" height="17.1042mm" version="1.1" style="shape-rendering:geometricPrecision; text-rendering:geometricPrecision; image-rendering:optimizeQuality; fill-rule:evenodd; clip-rule:evenodd"
viewBox="0 0 1809 1827"
 xmlns:xlink="http://www.w3.org/1999/xlink">
 <defs>
  <style type="text/css">
   <![CDATA[
    .fil1 {fill:#442A15}
    .fil0 {fill:#FDAA24}
   ]]>
  </style>
 </defs>
 <g id="Camada_x0020_1">
  <metadata id="CorelCorpID_0Corel-Layer"/>
  <g id="_2036737669392">
   <path class="fil0" d="M510 1230c14,-106 175,-95 388,-132 214,-37 371,-103 405,-13 -31,54 13,26 -78,48 -134,32 -654,132 -715,97zm869 -408c-160,77 -258,-46 -180,-147 67,-87 241,-50 180,147zm-947 -2c-73,-258 257,-249 183,-2 -168,73 -114,2 -183,2zm-432 66c0,538 426,941 904,941 475,0 905,-414 905,-887 0,-537 -375,-940 -941,-940 -458,0 -868,428 -868,886z"/>
   <path class="fil1" d="M510 1230c61,35 581,-65 715,-97 91,-22 47,6 78,-48 -34,-90 -191,-24 -405,13 -213,37 -374,26 -388,132z"/>
   <path class="fil1" d="M1379 822c61,-197 -113,-234 -180,-147 -78,101 20,224 180,147z"/>
   <path class="fil1" d="M432 820c69,0 15,71 183,-2 74,-247 -256,-256 -183,2z"/>
  </g>
 </g>
</svg>
